/vscmnt/brussel_pixiu_data/_data_brussel/112/vsc11236/PredSimResults/SUBJ10opt3D/expIG/worker_11.mot
version=1
nRows=9
nColumns=50
inDegrees=yes
endheader
                time	         pelvis_tilt	         pelvis_list	     pelvis_rotation	           pelvis_tx	           pelvis_ty	           pelvis_tz	       hip_flexion_r	     hip_adduction_r	      hip_rotation_r	        knee_angle_r	       ankle_angle_r	         mtp_angle_r	       hip_flexion_l	     hip_adduction_l	      hip_rotation_l	        knee_angle_l	       ankle_angle_l	         mtp_angle_l	    lumbar_extension	      lumbar_bending	     lumbar_rotation	 ercspn_r/activation	 intobl_r/activation	 extobl_r/activation	    abd_r/activation	    add_r/activation	hamstrings_r/activation	bifemsh_r/activation	glut_max_r/activation	iliopsoas_r/activation	rect_fem_r/activation	  vasti_r/activation	gastroc_r/activation	 soleus_r/activation	tib_ant_r/activation	 ercspn_l/activation	 intobl_l/activation	 extobl_l/activation	    abd_l/activation	    add_l/activation	hamstrings_l/activation	bifemsh_l/activation	glut_max_l/activation	iliopsoas_l/activation	rect_fem_l/activation	  vasti_l/activation	gastroc_l/activation	 soleus_l/activation	tib_ant_l/activation	
          0.46873578	         -6.27652521	          1.88915275	         -8.63854122	          0.74997724	          0.81128982	          0.01107361	        -18.08687783	         -1.97933712	          3.08695576	         -5.82818616	          3.51899530	         32.96602416	         35.19134135	         -1.58595269	         -7.59943371	         -8.55964802	          5.21073229	          0.32641289	         -7.90488200	         -1.55247388	          7.90539237	          0.13717906	          0.00999999	          0.00999999	          0.03999776	          0.05429692	          0.03312551	          0.27813265	          0.01680463	          0.49441314	          0.00999999	          0.00999999	          0.31871207	          0.25118051	          0.02389458	          0.13103399	          0.15321328	          0.00999999	          0.00999999	          0.22018814	          0.17959320	          0.36793574	          0.06167344	          0.09223036	          0.00999999	          0.00999999	          0.02241948	          0.00999999	          0.38962954	
          0.47811049	         -6.26602758	          1.93999324	         -8.75141039	          0.76733016	          0.80976092	          0.01104764	        -18.01922995	         -2.14240124	          2.80198682	         -8.00934795	          2.52165319	         34.62813843	         35.03671156	         -1.32302948	         -6.94771785	        -10.34376964	          4.72369446	          0.30292221	         -7.71046464	         -1.97029217	          8.13331440	          0.15731476	          0.00999999	          0.00999999	          0.03459280	          0.10328206	          0.04269109	          0.24054814	          0.01453379	          0.44026589	          0.00999999	          0.00999999	          0.27564400	          0.23483617	          0.02066567	          0.11332715	          0.13250933	          0.00999999	          0.00999999	          0.19043376	          0.15532449	          0.31821600	          0.15710748	          0.07976712	          0.00999999	          0.00999999	          0.01938990	          0.01156244	          0.46178500	
          0.48748521	         -6.24688717	          1.99309191	         -8.81417128	          0.78482099	          0.80845465	          0.01094268	        -17.74273831	         -2.29561405	          2.45614712	        -10.57376690	          1.46173098	         35.98477567	         34.74548198	         -1.07817778	         -6.31387232	        -11.94744762	          4.15453150	          0.29030166	         -7.51129215	         -2.38804956	          8.31801658	          0.19303956	          0.00999999	          0.00999999	          0.02991822	          0.08932539	          0.03692218	          0.20804249	          0.01256982	          0.39589630	          0.00999999	          0.00999999	          0.23839579	          0.20468295	          0.01787308	          0.12696506	          0.11460313	          0.00999999	          0.08930108	          0.21098710	          0.13433524	          0.27521497	          0.19686608	          0.06898806	          0.00999999	          0.00999999	          0.01676971	          0.00999999	          0.59335206	
          0.49685992	         -6.22033194	          2.02562386	         -8.82534242	          0.80224032	          0.80752537	          0.01072389	        -17.19248716	         -2.42058757	          2.06204404	        -13.60084256	          0.34067468	         36.85447572	         34.43092138	         -0.83552269	         -5.79976170	        -13.48257852	          3.46815930	          0.26545178	         -7.33397922	         -2.77554622	          8.45938103	          0.23166505	          0.00999999	          0.00999999	          0.02587532	          0.07725471	          0.03193283	          0.17992937	          0.01087124	          0.34239820	          0.00999999	          0.00999999	          0.20618099	          0.17702381	          0.01545786	          0.13929451	          0.09911663	          0.00999999	          0.13399204	          0.25819738	          0.11618231	          0.23802473	          0.22479004	          0.05966560	          0.00999999	          0.00999999	          0.01450359	          0.00999999	          0.63743035	
          0.50623464	         -6.18577490	          2.04438822	         -8.78790254	          0.81946932	          0.80707212	          0.01040128	        -16.33244859	         -2.53043666	          1.62585859	        -17.12048126	         -0.87327824	         37.10257817	         34.17580071	         -0.59737122	         -5.38920827	        -15.15344887	          3.00332905	          0.23889019	         -7.18708257	         -3.14003145	          8.55623531	          0.26983441	          0.00999999	          0.00999999	          0.02237875	          0.13464404	          0.02779965	          0.15561523	          0.00999999	          0.29612939	          0.00999999	          0.00999999	          0.17831942	          0.15310231	          0.01336902	          0.14884377	          0.08572284	          0.00999999	          0.17477665	          0.31102933	          0.10048241	          0.20586007	          0.24097844	          0.05160289	          0.00999999	          0.04374772	          0.01254370	          0.00999999	          0.65050879	
          0.51560936	         -6.14540427	          2.04736001	         -8.70218812	          0.83644289	          0.80719025	          0.01000557	        -15.14393021	         -2.62617010	          1.14210238	        -21.09914441	         -2.33196399	         36.72869263	         33.94290699	         -0.37324358	         -5.08890459	        -16.89176477	          2.82810836	          0.21161907	         -7.07094929	         -3.48014994	          8.60698794	          0.28872662	          0.00999999	          0.00999999	          0.01935467	          0.21592294	          0.03103631	          0.13458670	          0.00999999	          0.25611296	          0.00999999	          0.00999999	          0.15422284	          0.13241335	          0.01156244	          0.14613031	          0.07413898	          0.00999999	          0.19876768	          0.34398172	          0.08690406	          0.17804187	          0.23484176	          0.04462971	          0.00999999	          0.09700102	          0.01084865	          0.00999999	          0.63949214	
          0.52498407	         -6.10278409	          2.03191363	         -8.56807521	          0.85311868	          0.80793699	          0.00956445	        -13.62959580	         -2.71218111	          0.60583223	        -25.45016223	         -4.18309926	         35.71531526	         33.64480374	         -0.15975910	         -4.87145361	        -18.53063446	          2.95435202	          0.18898548	         -6.98464416	         -3.79371711	          8.61113169	          0.29012899	          0.00999999	          0.00999999	          0.01673925	          0.26141931	          0.02847546	          0.11639978	          0.00999999	          0.22150401	          0.00999999	          0.00999999	          0.13338246	          0.11452012	          0.00999999	          0.12638349	          0.06412046	          0.00999999	          0.20899286	          0.36323890	          0.07706892	          0.15398279	          0.21098580	          0.03859883	          0.00999999	          0.12926635	          0.00999999	          0.00999999	          0.58102714	
          0.53435879	         -6.06110422	          1.99846678	         -8.38780963	          0.86946568	          0.80928545	          0.00908846	        -11.82124895	         -2.79901811	          0.03215474	        -30.03068592	         -6.53794410	         34.05362870	         33.22967239	          0.05394870	         -4.67560887	        -19.96350315	          3.35624203	          0.17726723	         -6.92866595	         -4.07988763	          8.57229221	          0.28609116	          0.00999999	          0.00999999	          0.01447725	          0.30207281	          0.02462753	          0.10067050	          0.00999999	          0.19157182	          0.00999999	          0.00999999	          0.11535828	          0.09904484	          0.00999999	          0.10930509	          0.05545576	          0.00999999	          0.22037653	          0.36402869	          0.07478176	          0.13317485	          0.18247495	          0.03338290	          0.00999999	          0.16383267	          0.00999999	          0.00999999	          0.50251202	
          0.54373350	         -6.02299282	          1.95114247	         -8.16647479	          0.88545621	          0.81116985	          0.00859192	         -9.77339293	         -2.89146512	         -0.53249108	        -34.71733796	         -9.11162463	         31.42615444	         32.65846896	          0.27756122	         -4.45647551	        -21.10997680	          4.02437733	          0.20097141	         -6.90358670	         -4.34157947	          8.49438932	          0.29813363	          0.04859147	          0.00999999	          0.01252091	          0.26125323	          0.02129957	          0.08706673	          0.01545786	          0.16568441	          0.00999999	          0.00999999	          0.09976973	          0.08566075	          0.13623880	          0.09453452	          0.04796193	          0.00999999	          0.23319250	          0.31515689	          0.07624504	          0.11517872	          0.15781682	          0.02887182	          0.00999999	          0.20255411	          0.00999999	          0.00999999	          0.43460677	
